<?xml version="1.0" encoding="utf-8" standalone="no"?>
<!DOCTYPE svg PUBLIC "-//W3C//DTD SVG 1.1//EN"
  "http://www.w3.org/Graphics/SVG/1.1/DTD/svg11.dtd">
<!-- Created with matplotlib (https://matplotlib.org/) -->
<svg height="345.6pt" version="1.1" viewBox="0 0 460.8 345.6" width="460.8pt" xmlns="http://www.w3.org/2000/svg" xmlns:xlink="http://www.w3.org/1999/xlink">
 <metadata>
  <rdf:RDF xmlns:cc="http://creativecommons.org/ns#" xmlns:dc="http://purl.org/dc/elements/1.1/" xmlns:rdf="http://www.w3.org/1999/02/22-rdf-syntax-ns#">
   <cc:Work>
    <dc:type rdf:resource="http://purl.org/dc/dcmitype/StillImage"/>
    <dc:date>2024-01-14T16:01:14.095895</dc:date>
    <dc:format>image/svg+xml</dc:format>
    <dc:creator>
     <cc:Agent>
      <dc:title>Matplotlib v3.3.2, https://matplotlib.org/</dc:title>
     </cc:Agent>
    </dc:creator>
   </cc:Work>
  </rdf:RDF>
 </metadata>
 <defs>
  <style type="text/css">*{stroke-linecap:butt;stroke-linejoin:round;}</style>
 </defs>
 <g id="figure_1">
  <g id="patch_1">
   <path d="M 0 345.6 
L 460.8 345.6 
L 460.8 0 
L 0 0 
z
" style="fill:none;"/>
  </g>
  <g id="axes_1">
   <g id="patch_2">
    <path d="M 57.6 119.740235 
L 414.72 119.740235 
L 414.72 41.472 
L 57.6 41.472 
z
" style="fill:none;"/>
   </g>
   <g id="matplotlib.axis_1">
    <g id="xtick_1">
     <g id="line2d_1">
      <defs>
       <path d="M 0 0 
L 0 3.5 
" id="m3d53868aef" style="stroke:#cccccc;stroke-width:0.8;"/>
      </defs>
      <g>
       <use style="fill:#cccccc;stroke:#cccccc;stroke-width:0.8;" x="73.832727" xlink:href="#m3d53868aef" y="119.740235"/>
      </g>
     </g>
    </g>
    <g id="xtick_2">
     <g id="line2d_2">
      <g>
       <use style="fill:#cccccc;stroke:#cccccc;stroke-width:0.8;" x="114.416575" xlink:href="#m3d53868aef" y="119.740235"/>
      </g>
     </g>
    </g>
    <g id="xtick_3">
     <g id="line2d_3">
      <g>
       <use style="fill:#cccccc;stroke:#cccccc;stroke-width:0.8;" x="155.000422" xlink:href="#m3d53868aef" y="119.740235"/>
      </g>
     </g>
    </g>
    <g id="xtick_4">
     <g id="line2d_4">
      <g>
       <use style="fill:#cccccc;stroke:#cccccc;stroke-width:0.8;" x="195.584269" xlink:href="#m3d53868aef" y="119.740235"/>
      </g>
     </g>
    </g>
    <g id="xtick_5">
     <g id="line2d_5">
      <g>
       <use style="fill:#cccccc;stroke:#cccccc;stroke-width:0.8;" x="236.168117" xlink:href="#m3d53868aef" y="119.740235"/>
      </g>
     </g>
    </g>
    <g id="xtick_6">
     <g id="line2d_6">
      <g>
       <use style="fill:#cccccc;stroke:#cccccc;stroke-width:0.8;" x="276.751964" xlink:href="#m3d53868aef" y="119.740235"/>
      </g>
     </g>
    </g>
    <g id="xtick_7">
     <g id="line2d_7">
      <g>
       <use style="fill:#cccccc;stroke:#cccccc;stroke-width:0.8;" x="317.335812" xlink:href="#m3d53868aef" y="119.740235"/>
      </g>
     </g>
    </g>
    <g id="xtick_8">
     <g id="line2d_8">
      <g>
       <use style="fill:#cccccc;stroke:#cccccc;stroke-width:0.8;" x="357.919659" xlink:href="#m3d53868aef" y="119.740235"/>
      </g>
     </g>
    </g>
    <g id="xtick_9">
     <g id="line2d_9">
      <g>
       <use style="fill:#cccccc;stroke:#cccccc;stroke-width:0.8;" x="398.503506" xlink:href="#m3d53868aef" y="119.740235"/>
      </g>
     </g>
    </g>
   </g>
   <g id="matplotlib.axis_2">
    <g id="ytick_1">
     <g id="line2d_10">
      <defs>
       <path d="M 0 0 
L -3.5 0 
" id="m5c60b245e4" style="stroke:#cccccc;stroke-width:0.8;"/>
      </defs>
      <g>
       <use style="fill:#cccccc;stroke:#cccccc;stroke-width:0.8;" x="57.6" xlink:href="#m5c60b245e4" y="109.539496"/>
      </g>
     </g>
     <g id="text_1">
      <!-- −2 -->
      <g style="fill:#cccccc;" transform="translate(35.857813 113.338715)scale(0.1 -0.1)">
       <defs>
        <path d="M 10.59375 35.5 
L 73.1875 35.5 
L 73.1875 27.203125 
L 10.59375 27.203125 
z
" id="DejaVuSans-8722"/>
        <path d="M 19.1875 8.296875 
L 53.609375 8.296875 
L 53.609375 0 
L 7.328125 0 
L 7.328125 8.296875 
Q 12.9375 14.109375 22.625 23.890625 
Q 32.328125 33.6875 34.8125 36.53125 
Q 39.546875 41.84375 41.421875 45.53125 
Q 43.3125 49.21875 43.3125 52.78125 
Q 43.3125 58.59375 39.234375 62.25 
Q 35.15625 65.921875 28.609375 65.921875 
Q 23.96875 65.921875 18.8125 64.3125 
Q 13.671875 62.703125 7.8125 59.421875 
L 7.8125 69.390625 
Q 13.765625 71.78125 18.9375 73 
Q 24.125 74.21875 28.421875 74.21875 
Q 39.75 74.21875 46.484375 68.546875 
Q 53.21875 62.890625 53.21875 53.421875 
Q 53.21875 48.921875 51.53125 44.890625 
Q 49.859375 40.875 45.40625 35.40625 
Q 44.1875 33.984375 37.640625 27.21875 
Q 31.109375 20.453125 19.1875 8.296875 
z
" id="DejaVuSans-50"/>
       </defs>
       <use xlink:href="#DejaVuSans-8722"/>
       <use x="83.789062" xlink:href="#DejaVuSans-50"/>
      </g>
     </g>
    </g>
    <g id="ytick_2">
     <g id="line2d_11">
      <g>
       <use style="fill:#cccccc;stroke:#cccccc;stroke-width:0.8;" x="57.6" xlink:href="#m5c60b245e4" y="74.6226"/>
      </g>
     </g>
     <g id="text_2">
      <!-- 0 -->
      <g style="fill:#cccccc;" transform="translate(44.2375 78.421819)scale(0.1 -0.1)">
       <defs>
        <path d="M 31.78125 66.40625 
Q 24.171875 66.40625 20.328125 58.90625 
Q 16.5 51.421875 16.5 36.375 
Q 16.5 21.390625 20.328125 13.890625 
Q 24.171875 6.390625 31.78125 6.390625 
Q 39.453125 6.390625 43.28125 13.890625 
Q 47.125 21.390625 47.125 36.375 
Q 47.125 51.421875 43.28125 58.90625 
Q 39.453125 66.40625 31.78125 66.40625 
z
M 31.78125 74.21875 
Q 44.046875 74.21875 50.515625 64.515625 
Q 56.984375 54.828125 56.984375 36.375 
Q 56.984375 17.96875 50.515625 8.265625 
Q 44.046875 -1.421875 31.78125 -1.421875 
Q 19.53125 -1.421875 13.0625 8.265625 
Q 6.59375 17.96875 6.59375 36.375 
Q 6.59375 54.828125 13.0625 64.515625 
Q 19.53125 74.21875 31.78125 74.21875 
z
" id="DejaVuSans-48"/>
       </defs>
       <use xlink:href="#DejaVuSans-48"/>
      </g>
     </g>
    </g>
   </g>
   <g id="line2d_12">
    <path clip-path="url(#p4f8b77034a)" d="M 73.832727 52.39771 
L 74.660638 52.658912 
L 75.537249 53.176526 
L 76.495028 54.008899 
L 77.582675 55.264362 
L 78.832657 57.066919 
L 80.326143 59.636238 
L 82.274168 63.469003 
L 88.313044 75.677884 
L 89.85523 78.131736 
L 91.153913 79.799485 
L 92.290261 80.91174 
L 93.29674 81.600802 
L 94.222052 81.974797 
L 95.098663 82.092098 
L 95.942807 81.98351 
L 96.803185 81.648582 
L 97.712263 81.051369 
L 98.702509 80.123743 
L 99.790156 78.787201 
L 101.007671 76.925606 
L 102.419989 74.338489 
L 104.108277 70.756022 
L 106.445907 65.21962 
L 110.991298 54.374702 
L 112.712053 50.901904 
L 114.091904 48.588344 
L 115.276952 47.012423 
L 116.315899 45.985416 
L 117.224977 45.382312 
L 118.052887 45.087054 
L 118.832097 45.039077 
L 119.595074 45.213851 
L 120.374283 45.622546 
L 121.202194 46.313588 
L 122.111272 47.37649 
L 123.101518 48.891414 
L 124.205399 51.005977 
L 125.439148 53.873061 
L 126.835232 57.705296 
L 128.458586 62.84256 
L 130.455311 69.945657 
L 133.539684 81.865028 
L 137.175996 95.703566 
L 139.140254 102.320007 
L 140.731141 106.940179 
L 142.094759 110.251259 
L 143.279807 112.57785 
L 144.334987 114.183388 
L 145.260299 115.21197 
L 146.104443 115.831939 
L 146.867419 116.126826 
L 147.597928 116.171621 
L 148.312204 115.991231 
L 149.058947 115.567875 
L 149.870624 114.840291 
L 150.763468 113.727202 
L 151.769948 112.096166 
L 152.906295 109.805151 
L 154.204979 106.656346 
L 155.714698 102.381283 
L 157.565321 96.431968 
L 160.243855 86.982037 
L 164.610677 71.59714 
L 166.574935 65.529316 
L 168.182056 61.25416 
L 169.561906 58.181737 
L 170.779422 55.980915 
L 171.883303 54.424615 
L 172.873548 53.39523 
L 173.782627 52.759083 
L 174.626771 52.432257 
L 175.438448 52.354097 
L 176.250125 52.501599 
L 177.094269 52.885747 
L 178.003347 53.549456 
L 179.02606 54.584624 
L 180.178641 56.081721 
L 181.526025 58.212851 
L 183.198079 61.302402 
L 185.665577 66.391628 
L 189.318123 73.875307 
L 191.055112 76.919327 
L 192.46743 78.969722 
L 193.684945 80.363433 
L 194.756359 81.26774 
L 195.730371 81.808332 
L 196.623216 82.057648 
L 197.483593 82.069446 
L 198.343971 81.854806 
L 199.236816 81.393518 
L 200.178361 80.648544 
L 201.217307 79.529323 
L 202.369889 77.944128 
L 203.668572 75.764806 
L 205.194524 72.749099 
L 207.110082 68.438153 
L 210.941197 59.098201 
L 213.29506 53.718348 
L 214.934648 50.494241 
L 216.282032 48.305914 
L 217.434613 46.832549 
L 218.441092 45.884251 
L 219.35017 45.321078 
L 220.178081 45.063863 
L 220.957291 45.052807 
L 221.720267 45.264465 
L 222.515711 45.723051 
L 223.359855 46.476938 
L 224.285166 47.618137 
L 225.291646 49.22708 
L 226.41176 51.453084 
L 227.677976 54.490533 
L 229.106527 58.521284 
L 230.778582 63.935292 
L 232.872708 71.518132 
L 236.752524 86.615461 
L 239.560926 97.072142 
L 241.444017 103.26419 
L 242.986203 107.612266 
L 244.317353 110.732398 
L 245.486168 112.92999 
L 246.508881 114.406204 
L 247.417959 115.35244 
L 248.24587 115.906522 
L 248.992613 116.151285 
L 249.706888 116.158156 
L 250.421164 115.943579 
L 251.18414 115.472369 
L 252.012051 114.683659 
L 252.921129 113.495062 
L 253.943842 111.772465 
L 255.096423 109.374233 
L 256.41134 106.103991 
L 257.96976 101.597522 
L 259.901551 95.281206 
L 262.904755 84.581512 
L 266.524835 71.874146 
L 268.505326 65.724932 
L 270.112447 61.420385 
L 271.508531 58.286077 
L 272.74228 56.037958 
L 273.846161 54.467971 
L 274.836407 53.426055 
L 275.745485 52.778365 
L 276.589629 52.440918 
L 277.401306 52.352747 
L 278.212983 52.490538 
L 279.057127 52.865008 
L 279.966205 53.518892 
L 280.972684 54.525369 
L 282.125266 56.00767 
L 283.472649 58.124436 
L 285.12847 61.169324 
L 287.531034 66.110073 
L 291.345916 73.930867 
L 293.082904 76.966365 
L 294.495222 79.007751 
L 295.712738 80.392461 
L 296.784151 81.288101 
L 297.758164 81.82036 
L 298.651008 82.061781 
L 299.511386 82.065844 
L 300.371763 81.843448 
L 301.264608 81.374196 
L 302.206153 80.62104 
L 303.2451 79.493197 
L 304.397681 77.899134 
L 305.712598 75.681195 
L 307.254784 72.61781 
L 309.202809 68.21471 
L 316.280631 51.711157 
L 317.74165 49.124567 
L 318.975399 47.370075 
L 320.046813 46.214769 
L 320.988358 45.509763 
L 321.832502 45.140442 
L 322.627945 45.029747 
L 323.390922 45.146337 
L 324.170131 45.494834 
L 324.981808 46.10681 
L 325.858419 47.053226 
L 326.832432 48.44879 
L 327.903845 50.391546 
L 329.105127 53.054538 
L 330.452511 56.606102 
L 332.010931 61.371322 
L 333.894021 67.890302 
L 336.507621 77.828066 
L 341.377683 96.43292 
L 343.309474 102.856558 
L 344.867894 107.309603 
L 346.215277 110.519277 
L 347.384092 112.762172 
L 348.423039 114.300972 
L 349.34835 115.293867 
L 350.176261 115.872217 
L 350.939237 116.142162 
L 351.653513 116.165112 
L 352.367789 115.966508 
L 353.114531 115.524365 
L 353.926208 114.776817 
L 354.835286 113.61895 
L 355.841766 111.958992 
L 356.978114 109.637771 
L 358.276797 106.45825 
L 359.802749 102.104023 
L 361.68584 96.012086 
L 364.461775 86.180943 
L 368.552627 71.777065 
L 370.533119 65.639977 
L 372.140239 61.348147 
L 373.536323 58.226527 
L 374.770072 55.990559 
L 375.873953 54.431937 
L 376.864199 53.400426 
L 377.773277 52.762322 
L 378.617421 52.433695 
L 379.429098 52.353837 
L 380.240775 52.499694 
L 381.084919 52.882202 
L 381.993997 53.544247 
L 383.01671 54.577693 
L 384.169291 56.073074 
L 385.516675 58.202539 
L 387.172496 61.258762 
L 389.62376 66.310059 
L 393.325007 73.89459 
L 395.061996 76.93566 
L 396.474314 78.982935 
L 397.691829 80.373527 
L 398.487273 81.072989 
L 398.487273 81.072989 
" style="fill:none;stroke:#ff0000;stroke-linecap:square;stroke-width:1.5;"/>
   </g>
   <g id="patch_3">
    <path d="M 57.6 119.740235 
L 57.6 41.472 
" style="fill:none;stroke:#cccccc;stroke-linecap:square;stroke-linejoin:miter;stroke-width:0.8;"/>
   </g>
   <g id="patch_4">
    <path d="M 414.72 119.740235 
L 414.72 41.472 
" style="fill:none;stroke:#cccccc;stroke-linecap:square;stroke-linejoin:miter;stroke-width:0.8;"/>
   </g>
   <g id="patch_5">
    <path d="M 57.6 119.740235 
L 414.72 119.740235 
" style="fill:none;stroke:#cccccc;stroke-linecap:square;stroke-linejoin:miter;stroke-width:0.8;"/>
   </g>
   <g id="patch_6">
    <path d="M 57.6 41.472 
L 414.72 41.472 
" style="fill:none;stroke:#cccccc;stroke-linecap:square;stroke-linejoin:miter;stroke-width:0.8;"/>
   </g>
   <g id="text_3">
    <!-- Decomposing a periodic signal into sine waves -->
    <g style="fill:#cccccc;" transform="translate(95.470313 35.472)scale(0.12 -0.12)">
     <defs>
      <path d="M 19.671875 64.796875 
L 19.671875 8.109375 
L 31.59375 8.109375 
Q 46.6875 8.109375 53.6875 14.9375 
Q 60.6875 21.78125 60.6875 36.53125 
Q 60.6875 51.171875 53.6875 57.984375 
Q 46.6875 64.796875 31.59375 64.796875 
z
M 9.8125 72.90625 
L 30.078125 72.90625 
Q 51.265625 72.90625 61.171875 64.09375 
Q 71.09375 55.28125 71.09375 36.53125 
Q 71.09375 17.671875 61.125 8.828125 
Q 51.171875 0 30.078125 0 
L 9.8125 0 
z
" id="DejaVuSans-68"/>
      <path d="M 56.203125 29.59375 
L 56.203125 25.203125 
L 14.890625 25.203125 
Q 15.484375 15.921875 20.484375 11.0625 
Q 25.484375 6.203125 34.421875 6.203125 
Q 39.59375 6.203125 44.453125 7.46875 
Q 49.3125 8.734375 54.109375 11.28125 
L 54.109375 2.78125 
Q 49.265625 0.734375 44.1875 -0.34375 
Q 39.109375 -1.421875 33.890625 -1.421875 
Q 20.796875 -1.421875 13.15625 6.1875 
Q 5.515625 13.8125 5.515625 26.8125 
Q 5.515625 40.234375 12.765625 48.109375 
Q 20.015625 56 32.328125 56 
Q 43.359375 56 49.78125 48.890625 
Q 56.203125 41.796875 56.203125 29.59375 
z
M 47.21875 32.234375 
Q 47.125 39.59375 43.09375 43.984375 
Q 39.0625 48.390625 32.421875 48.390625 
Q 24.90625 48.390625 20.390625 44.140625 
Q 15.875 39.890625 15.1875 32.171875 
z
" id="DejaVuSans-101"/>
      <path d="M 48.78125 52.59375 
L 48.78125 44.1875 
Q 44.96875 46.296875 41.140625 47.34375 
Q 37.3125 48.390625 33.40625 48.390625 
Q 24.65625 48.390625 19.8125 42.84375 
Q 14.984375 37.3125 14.984375 27.296875 
Q 14.984375 17.28125 19.8125 11.734375 
Q 24.65625 6.203125 33.40625 6.203125 
Q 37.3125 6.203125 41.140625 7.25 
Q 44.96875 8.296875 48.78125 10.40625 
L 48.78125 2.09375 
Q 45.015625 0.34375 40.984375 -0.53125 
Q 36.96875 -1.421875 32.421875 -1.421875 
Q 20.0625 -1.421875 12.78125 6.34375 
Q 5.515625 14.109375 5.515625 27.296875 
Q 5.515625 40.671875 12.859375 48.328125 
Q 20.21875 56 33.015625 56 
Q 37.15625 56 41.109375 55.140625 
Q 45.0625 54.296875 48.78125 52.59375 
z
" id="DejaVuSans-99"/>
      <path d="M 30.609375 48.390625 
Q 23.390625 48.390625 19.1875 42.75 
Q 14.984375 37.109375 14.984375 27.296875 
Q 14.984375 17.484375 19.15625 11.84375 
Q 23.34375 6.203125 30.609375 6.203125 
Q 37.796875 6.203125 41.984375 11.859375 
Q 46.1875 17.53125 46.1875 27.296875 
Q 46.1875 37.015625 41.984375 42.703125 
Q 37.796875 48.390625 30.609375 48.390625 
z
M 30.609375 56 
Q 42.328125 56 49.015625 48.375 
Q 55.71875 40.765625 55.71875 27.296875 
Q 55.71875 13.875 49.015625 6.21875 
Q 42.328125 -1.421875 30.609375 -1.421875 
Q 18.84375 -1.421875 12.171875 6.21875 
Q 5.515625 13.875 5.515625 27.296875 
Q 5.515625 40.765625 12.171875 48.375 
Q 18.84375 56 30.609375 56 
z
" id="DejaVuSans-111"/>
      <path d="M 52 44.1875 
Q 55.375 50.25 60.0625 53.125 
Q 64.75 56 71.09375 56 
Q 79.640625 56 84.28125 50.015625 
Q 88.921875 44.046875 88.921875 33.015625 
L 88.921875 0 
L 79.890625 0 
L 79.890625 32.71875 
Q 79.890625 40.578125 77.09375 44.375 
Q 74.3125 48.1875 68.609375 48.1875 
Q 61.625 48.1875 57.5625 43.546875 
Q 53.515625 38.921875 53.515625 30.90625 
L 53.515625 0 
L 44.484375 0 
L 44.484375 32.71875 
Q 44.484375 40.625 41.703125 44.40625 
Q 38.921875 48.1875 33.109375 48.1875 
Q 26.21875 48.1875 22.15625 43.53125 
Q 18.109375 38.875 18.109375 30.90625 
L 18.109375 0 
L 9.078125 0 
L 9.078125 54.6875 
L 18.109375 54.6875 
L 18.109375 46.1875 
Q 21.1875 51.21875 25.484375 53.609375 
Q 29.78125 56 35.6875 56 
Q 41.65625 56 45.828125 52.96875 
Q 50 49.953125 52 44.1875 
z
" id="DejaVuSans-109"/>
      <path d="M 18.109375 8.203125 
L 18.109375 -20.796875 
L 9.078125 -20.796875 
L 9.078125 54.6875 
L 18.109375 54.6875 
L 18.109375 46.390625 
Q 20.953125 51.265625 25.265625 53.625 
Q 29.59375 56 35.59375 56 
Q 45.5625 56 51.78125 48.09375 
Q 58.015625 40.1875 58.015625 27.296875 
Q 58.015625 14.40625 51.78125 6.484375 
Q 45.5625 -1.421875 35.59375 -1.421875 
Q 29.59375 -1.421875 25.265625 0.953125 
Q 20.953125 3.328125 18.109375 8.203125 
z
M 48.6875 27.296875 
Q 48.6875 37.203125 44.609375 42.84375 
Q 40.53125 48.484375 33.40625 48.484375 
Q 26.265625 48.484375 22.1875 42.84375 
Q 18.109375 37.203125 18.109375 27.296875 
Q 18.109375 17.390625 22.1875 11.75 
Q 26.265625 6.109375 33.40625 6.109375 
Q 40.53125 6.109375 44.609375 11.75 
Q 48.6875 17.390625 48.6875 27.296875 
z
" id="DejaVuSans-112"/>
      <path d="M 44.28125 53.078125 
L 44.28125 44.578125 
Q 40.484375 46.53125 36.375 47.5 
Q 32.28125 48.484375 27.875 48.484375 
Q 21.1875 48.484375 17.84375 46.4375 
Q 14.5 44.390625 14.5 40.28125 
Q 14.5 37.15625 16.890625 35.375 
Q 19.28125 33.59375 26.515625 31.984375 
L 29.59375 31.296875 
Q 39.15625 29.25 43.1875 25.515625 
Q 47.21875 21.78125 47.21875 15.09375 
Q 47.21875 7.46875 41.1875 3.015625 
Q 35.15625 -1.421875 24.609375 -1.421875 
Q 20.21875 -1.421875 15.453125 -0.5625 
Q 10.6875 0.296875 5.421875 2 
L 5.421875 11.28125 
Q 10.40625 8.6875 15.234375 7.390625 
Q 20.0625 6.109375 24.8125 6.109375 
Q 31.15625 6.109375 34.5625 8.28125 
Q 37.984375 10.453125 37.984375 14.40625 
Q 37.984375 18.0625 35.515625 20.015625 
Q 33.0625 21.96875 24.703125 23.78125 
L 21.578125 24.515625 
Q 13.234375 26.265625 9.515625 29.90625 
Q 5.8125 33.546875 5.8125 39.890625 
Q 5.8125 47.609375 11.28125 51.796875 
Q 16.75 56 26.8125 56 
Q 31.78125 56 36.171875 55.265625 
Q 40.578125 54.546875 44.28125 53.078125 
z
" id="DejaVuSans-115"/>
      <path d="M 9.421875 54.6875 
L 18.40625 54.6875 
L 18.40625 0 
L 9.421875 0 
z
M 9.421875 75.984375 
L 18.40625 75.984375 
L 18.40625 64.59375 
L 9.421875 64.59375 
z
" id="DejaVuSans-105"/>
      <path d="M 54.890625 33.015625 
L 54.890625 0 
L 45.90625 0 
L 45.90625 32.71875 
Q 45.90625 40.484375 42.875 44.328125 
Q 39.84375 48.1875 33.796875 48.1875 
Q 26.515625 48.1875 22.3125 43.546875 
Q 18.109375 38.921875 18.109375 30.90625 
L 18.109375 0 
L 9.078125 0 
L 9.078125 54.6875 
L 18.109375 54.6875 
L 18.109375 46.1875 
Q 21.34375 51.125 25.703125 53.5625 
Q 30.078125 56 35.796875 56 
Q 45.21875 56 50.046875 50.171875 
Q 54.890625 44.34375 54.890625 33.015625 
z
" id="DejaVuSans-110"/>
      <path d="M 45.40625 27.984375 
Q 45.40625 37.75 41.375 43.109375 
Q 37.359375 48.484375 30.078125 48.484375 
Q 22.859375 48.484375 18.828125 43.109375 
Q 14.796875 37.75 14.796875 27.984375 
Q 14.796875 18.265625 18.828125 12.890625 
Q 22.859375 7.515625 30.078125 7.515625 
Q 37.359375 7.515625 41.375 12.890625 
Q 45.40625 18.265625 45.40625 27.984375 
z
M 54.390625 6.78125 
Q 54.390625 -7.171875 48.1875 -13.984375 
Q 42 -20.796875 29.203125 -20.796875 
Q 24.46875 -20.796875 20.265625 -20.09375 
Q 16.0625 -19.390625 12.109375 -17.921875 
L 12.109375 -9.1875 
Q 16.0625 -11.328125 19.921875 -12.34375 
Q 23.78125 -13.375 27.78125 -13.375 
Q 36.625 -13.375 41.015625 -8.765625 
Q 45.40625 -4.15625 45.40625 5.171875 
L 45.40625 9.625 
Q 42.625 4.78125 38.28125 2.390625 
Q 33.9375 0 27.875 0 
Q 17.828125 0 11.671875 7.65625 
Q 5.515625 15.328125 5.515625 27.984375 
Q 5.515625 40.671875 11.671875 48.328125 
Q 17.828125 56 27.875 56 
Q 33.9375 56 38.28125 53.609375 
Q 42.625 51.21875 45.40625 46.390625 
L 45.40625 54.6875 
L 54.390625 54.6875 
z
" id="DejaVuSans-103"/>
      <path id="DejaVuSans-32"/>
      <path d="M 34.28125 27.484375 
Q 23.390625 27.484375 19.1875 25 
Q 14.984375 22.515625 14.984375 16.5 
Q 14.984375 11.71875 18.140625 8.90625 
Q 21.296875 6.109375 26.703125 6.109375 
Q 34.1875 6.109375 38.703125 11.40625 
Q 43.21875 16.703125 43.21875 25.484375 
L 43.21875 27.484375 
z
M 52.203125 31.203125 
L 52.203125 0 
L 43.21875 0 
L 43.21875 8.296875 
Q 40.140625 3.328125 35.546875 0.953125 
Q 30.953125 -1.421875 24.3125 -1.421875 
Q 15.921875 -1.421875 10.953125 3.296875 
Q 6 8.015625 6 15.921875 
Q 6 25.140625 12.171875 29.828125 
Q 18.359375 34.515625 30.609375 34.515625 
L 43.21875 34.515625 
L 43.21875 35.40625 
Q 43.21875 41.609375 39.140625 45 
Q 35.0625 48.390625 27.6875 48.390625 
Q 23 48.390625 18.546875 47.265625 
Q 14.109375 46.140625 10.015625 43.890625 
L 10.015625 52.203125 
Q 14.9375 54.109375 19.578125 55.046875 
Q 24.21875 56 28.609375 56 
Q 40.484375 56 46.34375 49.84375 
Q 52.203125 43.703125 52.203125 31.203125 
z
" id="DejaVuSans-97"/>
      <path d="M 41.109375 46.296875 
Q 39.59375 47.171875 37.8125 47.578125 
Q 36.03125 48 33.890625 48 
Q 26.265625 48 22.1875 43.046875 
Q 18.109375 38.09375 18.109375 28.8125 
L 18.109375 0 
L 9.078125 0 
L 9.078125 54.6875 
L 18.109375 54.6875 
L 18.109375 46.1875 
Q 20.953125 51.171875 25.484375 53.578125 
Q 30.03125 56 36.53125 56 
Q 37.453125 56 38.578125 55.875 
Q 39.703125 55.765625 41.0625 55.515625 
z
" id="DejaVuSans-114"/>
      <path d="M 45.40625 46.390625 
L 45.40625 75.984375 
L 54.390625 75.984375 
L 54.390625 0 
L 45.40625 0 
L 45.40625 8.203125 
Q 42.578125 3.328125 38.25 0.953125 
Q 33.9375 -1.421875 27.875 -1.421875 
Q 17.96875 -1.421875 11.734375 6.484375 
Q 5.515625 14.40625 5.515625 27.296875 
Q 5.515625 40.1875 11.734375 48.09375 
Q 17.96875 56 27.875 56 
Q 33.9375 56 38.25 53.625 
Q 42.578125 51.265625 45.40625 46.390625 
z
M 14.796875 27.296875 
Q 14.796875 17.390625 18.875 11.75 
Q 22.953125 6.109375 30.078125 6.109375 
Q 37.203125 6.109375 41.296875 11.75 
Q 45.40625 17.390625 45.40625 27.296875 
Q 45.40625 37.203125 41.296875 42.84375 
Q 37.203125 48.484375 30.078125 48.484375 
Q 22.953125 48.484375 18.875 42.84375 
Q 14.796875 37.203125 14.796875 27.296875 
z
" id="DejaVuSans-100"/>
      <path d="M 9.421875 75.984375 
L 18.40625 75.984375 
L 18.40625 0 
L 9.421875 0 
z
" id="DejaVuSans-108"/>
      <path d="M 18.3125 70.21875 
L 18.3125 54.6875 
L 36.8125 54.6875 
L 36.8125 47.703125 
L 18.3125 47.703125 
L 18.3125 18.015625 
Q 18.3125 11.328125 20.140625 9.421875 
Q 21.96875 7.515625 27.59375 7.515625 
L 36.8125 7.515625 
L 36.8125 0 
L 27.59375 0 
Q 17.1875 0 13.234375 3.875 
Q 9.28125 7.765625 9.28125 18.015625 
L 9.28125 47.703125 
L 2.6875 47.703125 
L 2.6875 54.6875 
L 9.28125 54.6875 
L 9.28125 70.21875 
z
" id="DejaVuSans-116"/>
      <path d="M 4.203125 54.6875 
L 13.1875 54.6875 
L 24.421875 12.015625 
L 35.59375 54.6875 
L 46.1875 54.6875 
L 57.421875 12.015625 
L 68.609375 54.6875 
L 77.59375 54.6875 
L 63.28125 0 
L 52.6875 0 
L 40.921875 44.828125 
L 29.109375 0 
L 18.5 0 
z
" id="DejaVuSans-119"/>
      <path d="M 2.984375 54.6875 
L 12.5 54.6875 
L 29.59375 8.796875 
L 46.6875 54.6875 
L 56.203125 54.6875 
L 35.6875 0 
L 23.484375 0 
z
" id="DejaVuSans-118"/>
     </defs>
     <use xlink:href="#DejaVuSans-68"/>
     <use x="77.001953" xlink:href="#DejaVuSans-101"/>
     <use x="138.525391" xlink:href="#DejaVuSans-99"/>
     <use x="193.505859" xlink:href="#DejaVuSans-111"/>
     <use x="254.6875" xlink:href="#DejaVuSans-109"/>
     <use x="352.099609" xlink:href="#DejaVuSans-112"/>
     <use x="415.576172" xlink:href="#DejaVuSans-111"/>
     <use x="476.757812" xlink:href="#DejaVuSans-115"/>
     <use x="528.857422" xlink:href="#DejaVuSans-105"/>
     <use x="556.640625" xlink:href="#DejaVuSans-110"/>
     <use x="620.019531" xlink:href="#DejaVuSans-103"/>
     <use x="683.496094" xlink:href="#DejaVuSans-32"/>
     <use x="715.283203" xlink:href="#DejaVuSans-97"/>
     <use x="776.5625" xlink:href="#DejaVuSans-32"/>
     <use x="808.349609" xlink:href="#DejaVuSans-112"/>
     <use x="871.826172" xlink:href="#DejaVuSans-101"/>
     <use x="933.349609" xlink:href="#DejaVuSans-114"/>
     <use x="974.462891" xlink:href="#DejaVuSans-105"/>
     <use x="1002.246094" xlink:href="#DejaVuSans-111"/>
     <use x="1063.427734" xlink:href="#DejaVuSans-100"/>
     <use x="1126.904297" xlink:href="#DejaVuSans-105"/>
     <use x="1154.6875" xlink:href="#DejaVuSans-99"/>
     <use x="1209.667969" xlink:href="#DejaVuSans-32"/>
     <use x="1241.455078" xlink:href="#DejaVuSans-115"/>
     <use x="1293.554688" xlink:href="#DejaVuSans-105"/>
     <use x="1321.337891" xlink:href="#DejaVuSans-103"/>
     <use x="1384.814453" xlink:href="#DejaVuSans-110"/>
     <use x="1448.193359" xlink:href="#DejaVuSans-97"/>
     <use x="1509.472656" xlink:href="#DejaVuSans-108"/>
     <use x="1537.255859" xlink:href="#DejaVuSans-32"/>
     <use x="1569.042969" xlink:href="#DejaVuSans-105"/>
     <use x="1596.826172" xlink:href="#DejaVuSans-110"/>
     <use x="1660.205078" xlink:href="#DejaVuSans-116"/>
     <use x="1699.414062" xlink:href="#DejaVuSans-111"/>
     <use x="1760.595703" xlink:href="#DejaVuSans-32"/>
     <use x="1792.382812" xlink:href="#DejaVuSans-115"/>
     <use x="1844.482422" xlink:href="#DejaVuSans-105"/>
     <use x="1872.265625" xlink:href="#DejaVuSans-110"/>
     <use x="1935.644531" xlink:href="#DejaVuSans-101"/>
     <use x="1997.167969" xlink:href="#DejaVuSans-32"/>
     <use x="2028.955078" xlink:href="#DejaVuSans-119"/>
     <use x="2110.742188" xlink:href="#DejaVuSans-97"/>
     <use x="2172.021484" xlink:href="#DejaVuSans-118"/>
     <use x="2231.201172" xlink:href="#DejaVuSans-101"/>
     <use x="2292.724609" xlink:href="#DejaVuSans-115"/>
    </g>
   </g>
  </g>
  <g id="axes_2">
   <g id="patch_7">
    <path d="M 57.6 213.662118 
L 414.72 213.662118 
L 414.72 135.393882 
L 57.6 135.393882 
z
" style="fill:none;"/>
   </g>
   <g id="matplotlib.axis_3">
    <g id="xtick_10">
     <g id="line2d_13">
      <g>
       <use style="fill:#cccccc;stroke:#cccccc;stroke-width:0.8;" x="73.832727" xlink:href="#m3d53868aef" y="213.662118"/>
      </g>
     </g>
    </g>
    <g id="xtick_11">
     <g id="line2d_14">
      <g>
       <use style="fill:#cccccc;stroke:#cccccc;stroke-width:0.8;" x="114.416575" xlink:href="#m3d53868aef" y="213.662118"/>
      </g>
     </g>
    </g>
    <g id="xtick_12">
     <g id="line2d_15">
      <g>
       <use style="fill:#cccccc;stroke:#cccccc;stroke-width:0.8;" x="155.000422" xlink:href="#m3d53868aef" y="213.662118"/>
      </g>
     </g>
    </g>
    <g id="xtick_13">
     <g id="line2d_16">
      <g>
       <use style="fill:#cccccc;stroke:#cccccc;stroke-width:0.8;" x="195.584269" xlink:href="#m3d53868aef" y="213.662118"/>
      </g>
     </g>
    </g>
    <g id="xtick_14">
     <g id="line2d_17">
      <g>
       <use style="fill:#cccccc;stroke:#cccccc;stroke-width:0.8;" x="236.168117" xlink:href="#m3d53868aef" y="213.662118"/>
      </g>
     </g>
    </g>
    <g id="xtick_15">
     <g id="line2d_18">
      <g>
       <use style="fill:#cccccc;stroke:#cccccc;stroke-width:0.8;" x="276.751964" xlink:href="#m3d53868aef" y="213.662118"/>
      </g>
     </g>
    </g>
    <g id="xtick_16">
     <g id="line2d_19">
      <g>
       <use style="fill:#cccccc;stroke:#cccccc;stroke-width:0.8;" x="317.335812" xlink:href="#m3d53868aef" y="213.662118"/>
      </g>
     </g>
    </g>
    <g id="xtick_17">
     <g id="line2d_20">
      <g>
       <use style="fill:#cccccc;stroke:#cccccc;stroke-width:0.8;" x="357.919659" xlink:href="#m3d53868aef" y="213.662118"/>
      </g>
     </g>
    </g>
    <g id="xtick_18">
     <g id="line2d_21">
      <g>
       <use style="fill:#cccccc;stroke:#cccccc;stroke-width:0.8;" x="398.503506" xlink:href="#m3d53868aef" y="213.662118"/>
      </g>
     </g>
    </g>
   </g>
   <g id="matplotlib.axis_4">
    <g id="ytick_3">
     <g id="line2d_22">
      <g>
       <use style="fill:#cccccc;stroke:#cccccc;stroke-width:0.8;" x="57.6" xlink:href="#m5c60b245e4" y="210.104472"/>
      </g>
     </g>
     <g id="text_4">
      <!-- −1 -->
      <g style="fill:#cccccc;" transform="translate(35.857813 213.90369)scale(0.1 -0.1)">
       <defs>
        <path d="M 12.40625 8.296875 
L 28.515625 8.296875 
L 28.515625 63.921875 
L 10.984375 60.40625 
L 10.984375 69.390625 
L 28.421875 72.90625 
L 38.28125 72.90625 
L 38.28125 8.296875 
L 54.390625 8.296875 
L 54.390625 0 
L 12.40625 0 
z
" id="DejaVuSans-49"/>
       </defs>
       <use xlink:href="#DejaVuSans-8722"/>
       <use x="83.789062" xlink:href="#DejaVuSans-49"/>
      </g>
     </g>
    </g>
    <g id="ytick_4">
     <g id="line2d_23">
      <g>
       <use style="fill:#cccccc;stroke:#cccccc;stroke-width:0.8;" x="57.6" xlink:href="#m5c60b245e4" y="174.528001"/>
      </g>
     </g>
     <g id="text_5">
      <!-- 0 -->
      <g style="fill:#cccccc;" transform="translate(44.2375 178.327219)scale(0.1 -0.1)">
       <use xlink:href="#DejaVuSans-48"/>
      </g>
     </g>
    </g>
    <g id="ytick_5">
     <g id="line2d_24">
      <g>
       <use style="fill:#cccccc;stroke:#cccccc;stroke-width:0.8;" x="57.6" xlink:href="#m5c60b245e4" y="138.951529"/>
      </g>
     </g>
     <g id="text_6">
      <!-- 1 -->
      <g style="fill:#cccccc;" transform="translate(44.2375 142.750748)scale(0.1 -0.1)">
       <use xlink:href="#DejaVuSans-49"/>
      </g>
     </g>
    </g>
   </g>
   <g id="line2d_25">
    <path clip-path="url(#p111d88d1ab)" d="M 73.832727 174.528001 
L 79.611867 162.12861 
L 82.647539 156.145396 
L 85.147504 151.690743 
L 87.322798 148.25101 
L 89.287056 145.548217 
L 91.072746 143.457948 
L 92.712333 141.868907 
L 94.238286 140.688778 
L 95.683071 139.84665 
L 97.046688 139.303574 
L 98.361605 139.015114 
L 99.644054 138.958089 
L 100.926504 139.122941 
L 102.225187 139.514929 
L 103.572571 140.158289 
L 104.984889 141.086575 
L 106.478374 142.343216 
L 108.069261 143.980945 
L 109.790016 146.081828 
L 111.656873 148.721384 
L 113.734766 152.058524 
L 116.072396 156.249288 
L 118.815864 161.643344 
L 122.403476 169.225849 
L 131.851395 189.436598 
L 134.643564 194.745202 
L 137.013661 198.788904 
L 139.107787 201.934731 
L 140.990878 204.375973 
L 142.711633 206.256693 
L 144.30252 207.679016 
L 145.796005 208.724963 
L 147.208323 209.448095 
L 148.555707 209.891831 
L 149.85439 210.089109 
L 151.13684 210.060699 
L 152.419289 209.810645 
L 153.734206 209.325771 
L 155.097823 208.581978 
L 156.526375 207.545309 
L 158.052327 206.15595 
L 159.691915 204.352293 
L 161.461371 202.065339 
L 163.409395 199.170778 
L 165.568456 195.550462 
L 168.035954 190.962321 
L 171.006691 184.945861 
L 175.308579 175.672842 
L 181.655893 162.034801 
L 184.691565 156.059735 
L 187.19153 151.614051 
L 189.366824 148.183608 
L 191.314849 145.510816 
L 193.100538 143.42655 
L 194.740125 141.843357 
L 196.266078 140.668906 
L 197.710863 139.832316 
L 199.07448 139.294572 
L 200.389397 139.011314 
L 201.671847 138.959387 
L 202.954296 139.129329 
L 204.252979 139.526431 
L 205.600363 140.175018 
L 207.012681 141.108658 
L 208.506166 142.37078 
L 210.097053 144.014088 
L 211.817808 146.120647 
L 213.700899 148.790415 
L 215.778792 152.136249 
L 218.132655 156.365851 
L 220.892357 161.803154 
L 224.512436 169.465705 
L 233.733086 189.204115 
L 236.541488 194.56375 
L 238.911585 198.627493 
L 241.005711 201.793901 
L 242.905035 204.275188 
L 244.642024 206.189062 
L 246.249144 207.637722 
L 247.74263 208.693539 
L 249.154948 209.42625 
L 250.502332 209.87928 
L 251.801015 210.085598 
L 253.083464 210.066139 
L 254.365914 209.825001 
L 255.680831 209.349175 
L 257.044448 208.614602 
L 258.472999 207.587344 
L 259.998952 206.207677 
L 261.622306 204.433209 
L 263.391762 202.159372 
L 265.323553 199.3035 
L 267.482613 195.699002 
L 269.933878 191.157171 
L 272.888382 185.190012 
L 277.092868 176.141573 
L 283.716152 161.907822 
L 286.735591 155.974221 
L 289.219322 151.564703 
L 291.394616 148.140263 
L 293.342641 145.473511 
L 295.12833 143.395255 
L 296.767918 141.817914 
L 298.29387 140.649145 
L 299.722422 139.825918 
L 301.086039 139.290569 
L 302.400956 139.009647 
L 303.683405 138.960008 
L 304.965855 139.132235 
L 306.264538 139.531632 
L 307.611922 140.182565 
L 309.02424 141.118608 
L 310.517725 142.383189 
L 312.108612 144.029001 
L 313.829367 146.138105 
L 315.712458 148.810433 
L 317.790351 152.15878 
L 320.144214 156.39078 
L 322.903915 161.830225 
L 326.523995 169.494396 
L 335.712178 189.165691 
L 338.52058 194.52889 
L 340.90691 198.622643 
L 343.001037 201.789666 
L 344.900361 204.271572 
L 346.637349 206.186055 
L 348.24447 207.63531 
L 349.737955 208.6917 
L 351.150273 209.424968 
L 352.497657 209.878539 
L 353.79634 210.085383 
L 355.07879 210.066444 
L 356.361239 209.825825 
L 357.676156 209.350525 
L 359.039773 208.616489 
L 360.468325 207.58978 
L 361.994277 206.210677 
L 363.617631 204.436779 
L 365.387087 202.163524 
L 367.318878 199.308231 
L 369.461705 195.732877 
L 371.912969 191.194439 
L 374.85124 185.264158 
L 379.039493 176.25477 
L 385.727711 161.880727 
L 388.747149 155.949497 
L 391.230881 151.542573 
L 393.406175 148.120832 
L 395.3542 145.456794 
L 397.139889 143.381238 
L 398.487273 142.063165 
L 398.487273 142.063165 
" style="fill:none;stroke:#0000ff;stroke-linecap:square;stroke-width:1.5;"/>
   </g>
   <g id="patch_8">
    <path d="M 57.6 213.662118 
L 57.6 135.393882 
" style="fill:none;stroke:#cccccc;stroke-linecap:square;stroke-linejoin:miter;stroke-width:0.8;"/>
   </g>
   <g id="patch_9">
    <path d="M 414.72 213.662118 
L 414.72 135.393882 
" style="fill:none;stroke:#cccccc;stroke-linecap:square;stroke-linejoin:miter;stroke-width:0.8;"/>
   </g>
   <g id="patch_10">
    <path d="M 57.6 213.662118 
L 414.72 213.662118 
" style="fill:none;stroke:#cccccc;stroke-linecap:square;stroke-linejoin:miter;stroke-width:0.8;"/>
   </g>
   <g id="patch_11">
    <path d="M 57.6 135.393882 
L 414.72 135.393882 
" style="fill:none;stroke:#cccccc;stroke-linecap:square;stroke-linejoin:miter;stroke-width:0.8;"/>
   </g>
  </g>
  <g id="axes_3">
   <g id="patch_12">
    <path d="M 57.6 307.584 
L 414.72 307.584 
L 414.72 229.315765 
L 57.6 229.315765 
z
" style="fill:none;"/>
   </g>
   <g id="matplotlib.axis_5">
    <g id="xtick_19">
     <g id="line2d_26">
      <g>
       <use style="fill:#cccccc;stroke:#cccccc;stroke-width:0.8;" x="73.832727" xlink:href="#m3d53868aef" y="307.584"/>
      </g>
     </g>
     <g id="text_7">
      <!-- 0 -->
      <g style="fill:#cccccc;" transform="translate(70.651477 322.182437)scale(0.1 -0.1)">
       <use xlink:href="#DejaVuSans-48"/>
      </g>
     </g>
    </g>
    <g id="xtick_20">
     <g id="line2d_27">
      <g>
       <use style="fill:#cccccc;stroke:#cccccc;stroke-width:0.8;" x="114.416575" xlink:href="#m3d53868aef" y="307.584"/>
      </g>
     </g>
     <g id="text_8">
      <!-- 250 -->
      <g style="fill:#cccccc;" transform="translate(104.872825 322.182437)scale(0.1 -0.1)">
       <defs>
        <path d="M 10.796875 72.90625 
L 49.515625 72.90625 
L 49.515625 64.59375 
L 19.828125 64.59375 
L 19.828125 46.734375 
Q 21.96875 47.46875 24.109375 47.828125 
Q 26.265625 48.1875 28.421875 48.1875 
Q 40.625 48.1875 47.75 41.5 
Q 54.890625 34.8125 54.890625 23.390625 
Q 54.890625 11.625 47.5625 5.09375 
Q 40.234375 -1.421875 26.90625 -1.421875 
Q 22.3125 -1.421875 17.546875 -0.640625 
Q 12.796875 0.140625 7.71875 1.703125 
L 7.71875 11.625 
Q 12.109375 9.234375 16.796875 8.0625 
Q 21.484375 6.890625 26.703125 6.890625 
Q 35.15625 6.890625 40.078125 11.328125 
Q 45.015625 15.765625 45.015625 23.390625 
Q 45.015625 31 40.078125 35.4375 
Q 35.15625 39.890625 26.703125 39.890625 
Q 22.75 39.890625 18.8125 39.015625 
Q 14.890625 38.140625 10.796875 36.28125 
z
" id="DejaVuSans-53"/>
       </defs>
       <use xlink:href="#DejaVuSans-50"/>
       <use x="63.623047" xlink:href="#DejaVuSans-53"/>
       <use x="127.246094" xlink:href="#DejaVuSans-48"/>
      </g>
     </g>
    </g>
    <g id="xtick_21">
     <g id="line2d_28">
      <g>
       <use style="fill:#cccccc;stroke:#cccccc;stroke-width:0.8;" x="155.000422" xlink:href="#m3d53868aef" y="307.584"/>
      </g>
     </g>
     <g id="text_9">
      <!-- 500 -->
      <g style="fill:#cccccc;" transform="translate(145.456672 322.182437)scale(0.1 -0.1)">
       <use xlink:href="#DejaVuSans-53"/>
       <use x="63.623047" xlink:href="#DejaVuSans-48"/>
       <use x="127.246094" xlink:href="#DejaVuSans-48"/>
      </g>
     </g>
    </g>
    <g id="xtick_22">
     <g id="line2d_29">
      <g>
       <use style="fill:#cccccc;stroke:#cccccc;stroke-width:0.8;" x="195.584269" xlink:href="#m3d53868aef" y="307.584"/>
      </g>
     </g>
     <g id="text_10">
      <!-- 750 -->
      <g style="fill:#cccccc;" transform="translate(186.040519 322.182437)scale(0.1 -0.1)">
       <defs>
        <path d="M 8.203125 72.90625 
L 55.078125 72.90625 
L 55.078125 68.703125 
L 28.609375 0 
L 18.3125 0 
L 43.21875 64.59375 
L 8.203125 64.59375 
z
" id="DejaVuSans-55"/>
       </defs>
       <use xlink:href="#DejaVuSans-55"/>
       <use x="63.623047" xlink:href="#DejaVuSans-53"/>
       <use x="127.246094" xlink:href="#DejaVuSans-48"/>
      </g>
     </g>
    </g>
    <g id="xtick_23">
     <g id="line2d_30">
      <g>
       <use style="fill:#cccccc;stroke:#cccccc;stroke-width:0.8;" x="236.168117" xlink:href="#m3d53868aef" y="307.584"/>
      </g>
     </g>
     <g id="text_11">
      <!-- 1000 -->
      <g style="fill:#cccccc;" transform="translate(223.443117 322.182437)scale(0.1 -0.1)">
       <use xlink:href="#DejaVuSans-49"/>
       <use x="63.623047" xlink:href="#DejaVuSans-48"/>
       <use x="127.246094" xlink:href="#DejaVuSans-48"/>
       <use x="190.869141" xlink:href="#DejaVuSans-48"/>
      </g>
     </g>
    </g>
    <g id="xtick_24">
     <g id="line2d_31">
      <g>
       <use style="fill:#cccccc;stroke:#cccccc;stroke-width:0.8;" x="276.751964" xlink:href="#m3d53868aef" y="307.584"/>
      </g>
     </g>
     <g id="text_12">
      <!-- 1250 -->
      <g style="fill:#cccccc;" transform="translate(264.026964 322.182437)scale(0.1 -0.1)">
       <use xlink:href="#DejaVuSans-49"/>
       <use x="63.623047" xlink:href="#DejaVuSans-50"/>
       <use x="127.246094" xlink:href="#DejaVuSans-53"/>
       <use x="190.869141" xlink:href="#DejaVuSans-48"/>
      </g>
     </g>
    </g>
    <g id="xtick_25">
     <g id="line2d_32">
      <g>
       <use style="fill:#cccccc;stroke:#cccccc;stroke-width:0.8;" x="317.335812" xlink:href="#m3d53868aef" y="307.584"/>
      </g>
     </g>
     <g id="text_13">
      <!-- 1500 -->
      <g style="fill:#cccccc;" transform="translate(304.610812 322.182437)scale(0.1 -0.1)">
       <use xlink:href="#DejaVuSans-49"/>
       <use x="63.623047" xlink:href="#DejaVuSans-53"/>
       <use x="127.246094" xlink:href="#DejaVuSans-48"/>
       <use x="190.869141" xlink:href="#DejaVuSans-48"/>
      </g>
     </g>
    </g>
    <g id="xtick_26">
     <g id="line2d_33">
      <g>
       <use style="fill:#cccccc;stroke:#cccccc;stroke-width:0.8;" x="357.919659" xlink:href="#m3d53868aef" y="307.584"/>
      </g>
     </g>
     <g id="text_14">
      <!-- 1750 -->
      <g style="fill:#cccccc;" transform="translate(345.194659 322.182437)scale(0.1 -0.1)">
       <use xlink:href="#DejaVuSans-49"/>
       <use x="63.623047" xlink:href="#DejaVuSans-55"/>
       <use x="127.246094" xlink:href="#DejaVuSans-53"/>
       <use x="190.869141" xlink:href="#DejaVuSans-48"/>
      </g>
     </g>
    </g>
    <g id="xtick_27">
     <g id="line2d_34">
      <g>
       <use style="fill:#cccccc;stroke:#cccccc;stroke-width:0.8;" x="398.503506" xlink:href="#m3d53868aef" y="307.584"/>
      </g>
     </g>
     <g id="text_15">
      <!-- 2000 -->
      <g style="fill:#cccccc;" transform="translate(385.778506 322.182437)scale(0.1 -0.1)">
       <use xlink:href="#DejaVuSans-50"/>
       <use x="63.623047" xlink:href="#DejaVuSans-48"/>
       <use x="127.246094" xlink:href="#DejaVuSans-48"/>
       <use x="190.869141" xlink:href="#DejaVuSans-48"/>
      </g>
     </g>
    </g>
    <g id="text_16">
     <!-- Time -->
     <g style="fill:#cccccc;" transform="translate(223.926406 335.860562)scale(0.1 -0.1)">
      <defs>
       <path d="M -0.296875 72.90625 
L 61.375 72.90625 
L 61.375 64.59375 
L 35.5 64.59375 
L 35.5 0 
L 25.59375 0 
L 25.59375 64.59375 
L -0.296875 64.59375 
z
" id="DejaVuSans-84"/>
      </defs>
      <use xlink:href="#DejaVuSans-84"/>
      <use x="57.958984" xlink:href="#DejaVuSans-105"/>
      <use x="85.742188" xlink:href="#DejaVuSans-109"/>
      <use x="183.154297" xlink:href="#DejaVuSans-101"/>
     </g>
    </g>
   </g>
   <g id="matplotlib.axis_6">
    <g id="ytick_6">
     <g id="line2d_35">
      <g>
       <use style="fill:#cccccc;stroke:#cccccc;stroke-width:0.8;" x="57.6" xlink:href="#m5c60b245e4" y="293.861647"/>
      </g>
     </g>
     <g id="text_17">
      <!-- −1 -->
      <g style="fill:#cccccc;" transform="translate(35.857813 297.660866)scale(0.1 -0.1)">
       <use xlink:href="#DejaVuSans-8722"/>
       <use x="83.789062" xlink:href="#DejaVuSans-49"/>
      </g>
     </g>
    </g>
    <g id="ytick_7">
     <g id="line2d_36">
      <g>
       <use style="fill:#cccccc;stroke:#cccccc;stroke-width:0.8;" x="57.6" xlink:href="#m5c60b245e4" y="268.449882"/>
      </g>
     </g>
     <g id="text_18">
      <!-- 0 -->
      <g style="fill:#cccccc;" transform="translate(44.2375 272.249101)scale(0.1 -0.1)">
       <use xlink:href="#DejaVuSans-48"/>
      </g>
     </g>
    </g>
    <g id="ytick_8">
     <g id="line2d_37">
      <g>
       <use style="fill:#cccccc;stroke:#cccccc;stroke-width:0.8;" x="57.6" xlink:href="#m5c60b245e4" y="243.038118"/>
      </g>
     </g>
     <g id="text_19">
      <!-- 1 -->
      <g style="fill:#cccccc;" transform="translate(44.2375 246.837336)scale(0.1 -0.1)">
       <use xlink:href="#DejaVuSans-49"/>
      </g>
     </g>
    </g>
   </g>
   <g id="line2d_38">
    <path clip-path="url(#p51e9786bf0)" d="M 73.832727 236.100289 
L 74.80674 238.10527 
L 75.926854 240.948454 
L 77.209303 244.842086 
L 78.719022 250.17117 
L 80.618347 257.746402 
L 83.832587 271.661877 
L 86.787091 284.065458 
L 88.605248 290.776033 
L 90.0825 295.420699 
L 91.332482 298.660272 
L 92.420129 300.899615 
L 93.377908 302.390912 
L 94.222052 303.31444 
L 94.968795 303.817578 
L 95.650604 304.015773 
L 96.299945 303.971356 
L 96.949287 303.699722 
L 97.647329 303.156317 
L 98.410305 302.269121 
L 99.270683 300.910952 
L 100.244695 298.934623 
L 101.348576 296.166538 
L 102.614792 292.364624 
L 104.108277 287.141764 
L 105.975134 279.748563 
L 108.962106 266.856067 
L 112.19258 253.205921 
L 114.02697 246.390461 
L 115.520455 241.655994 
L 116.786671 238.345043 
L 117.890552 236.052755 
L 118.848331 234.547379 
L 119.692475 233.610991 
L 120.439218 233.096241 
L 121.121026 232.887339 
L 121.770368 232.921534 
L 122.419709 233.18299 
L 123.117752 233.715579 
L 123.880728 234.591189 
L 124.741105 235.936717 
L 125.715118 237.899448 
L 126.818998 240.653275 
L 128.085214 244.440667 
L 129.5787 249.64937 
L 131.429323 256.962714 
L 134.35136 269.560472 
L 137.679236 283.642629 
L 139.529859 290.520672 
L 141.023345 295.253302 
L 142.289561 298.562441 
L 143.377208 300.823556 
L 144.334987 302.335167 
L 145.179131 303.277252 
L 145.925874 303.797147 
L 146.607682 304.010796 
L 147.257024 303.981131 
L 147.906366 303.724188 
L 148.604408 303.196398 
L 149.367384 302.325926 
L 150.227762 300.986008 
L 151.201774 299.029313 
L 152.305655 296.281819 
L 153.571871 292.50088 
L 155.065356 287.298474 
L 156.91598 279.990663 
L 159.821783 267.467051 
L 163.165892 253.30839 
L 165.016516 246.423561 
L 166.510001 241.683755 
L 167.776217 238.367535 
L 168.880098 236.070202 
L 169.837877 234.560186 
L 170.682021 233.619558 
L 171.428763 233.100978 
L 172.110572 232.888543 
L 172.759914 232.919367 
L 173.409255 233.177464 
L 174.107297 233.706482 
L 174.870274 234.578268 
L 175.730651 235.919622 
L 176.704664 237.877861 
L 177.808544 240.626975 
L 179.07476 244.409565 
L 180.568246 249.613583 
L 182.418869 256.922811 
L 185.324673 269.4472 
L 188.668782 283.604488 
L 190.519405 290.487583 
L 192.012891 295.225554 
L 193.279107 298.539964 
L 194.382988 300.835564 
L 195.340766 302.343986 
L 196.18491 303.283157 
L 196.931653 303.80042 
L 197.613462 304.011641 
L 198.262803 303.979659 
L 198.912145 303.720407 
L 199.610187 303.190162 
L 200.373163 302.317062 
L 201.233541 300.974273 
L 202.207553 299.01449 
L 203.311434 296.263756 
L 204.57765 292.479515 
L 206.071136 287.273886 
L 207.921759 279.963242 
L 210.843796 267.366957 
L 214.171671 253.282167 
L 216.022295 246.400807 
L 217.515781 241.66467 
L 218.781997 238.352071 
L 219.885877 236.058205 
L 220.843656 234.551378 
L 221.6878 233.613664 
L 222.434543 233.097717 
L 223.116351 232.88771 
L 223.765693 232.920851 
L 224.415035 233.181257 
L 225.113077 233.712729 
L 225.876053 234.587144 
L 226.736431 235.931367 
L 227.710443 237.892694 
L 228.814324 240.645047 
L 230.08054 244.430939 
L 231.574025 249.638178 
L 233.424649 256.950236 
L 236.346686 269.547293 
L 239.674561 283.630705 
L 241.525185 290.510329 
L 243.01867 295.24463 
L 244.284886 298.555418 
L 245.388767 300.84755 
L 246.346546 302.352782 
L 247.19069 303.289039 
L 247.937433 303.80367 
L 248.619241 304.012463 
L 249.268583 303.978163 
L 249.917924 303.716603 
L 250.615966 303.183904 
L 251.378943 302.308174 
L 252.23932 300.962517 
L 253.213333 298.999647 
L 254.317213 296.245675 
L 255.583429 292.458134 
L 257.076915 287.249285 
L 258.927538 279.935814 
L 261.849575 267.337987 
L 265.177451 253.255954 
L 267.028074 246.378068 
L 268.52156 241.645604 
L 269.787776 238.336628 
L 270.875423 236.075667 
L 271.833202 234.5642 
L 272.677346 233.622246 
L 273.424089 233.10247 
L 274.105897 232.88893 
L 274.755239 232.918699 
L 275.40458 233.175746 
L 276.102623 233.703648 
L 276.865599 234.574238 
L 277.725976 235.914286 
L 278.699989 237.87112 
L 279.803869 240.61876 
L 281.070086 244.399848 
L 282.563571 249.602399 
L 284.414195 256.910338 
L 287.319998 269.43402 
L 290.664107 283.592557 
L 292.51473 290.47723 
L 294.008216 295.216871 
L 295.274432 298.532928 
L 296.378313 300.830104 
L 297.336092 302.339977 
L 298.180236 303.280473 
L 298.926978 303.798934 
L 299.608787 304.01126 
L 300.258129 303.980332 
L 300.90747 303.72213 
L 301.605512 303.193002 
L 302.368489 302.321097 
L 303.228866 300.979614 
L 304.202879 299.021236 
L 305.306759 296.271975 
L 306.572975 292.489236 
L 308.066461 287.285073 
L 309.917084 279.975717 
L 312.822888 267.451259 
L 316.166997 253.294095 
L 318.01762 246.411156 
L 319.511106 241.67335 
L 320.777322 238.359103 
L 321.881202 236.06366 
L 322.838981 234.555382 
L 323.683125 233.616342 
L 324.429868 233.099198 
L 325.111677 232.888086 
L 325.761018 232.920173 
L 326.41036 233.179529 
L 327.108402 233.709884 
L 327.871378 234.583103 
L 328.731756 235.926021 
L 329.705768 237.885944 
L 330.809649 240.636824 
L 332.075865 244.421214 
L 333.56935 249.626988 
L 335.419974 256.937759 
L 338.342011 269.534114 
L 341.669886 283.61878 
L 343.52051 290.499983 
L 345.013995 295.235954 
L 346.280211 298.54839 
L 347.384092 300.8421 
L 348.341871 302.348783 
L 349.186015 303.286366 
L 349.932758 303.802194 
L 350.614566 304.012092 
L 351.263908 303.978846 
L 351.913249 303.718336 
L 352.611292 303.186754 
L 353.374268 302.31222 
L 354.234646 300.967868 
L 355.208658 299.006402 
L 356.312539 296.253902 
L 357.578755 292.467862 
L 359.07224 287.260478 
L 360.922864 279.948293 
L 363.844901 267.351165 
L 367.172776 253.267878 
L 369.0234 246.388411 
L 370.516885 241.654275 
L 371.783101 238.343651 
L 372.886982 236.051675 
L 373.844761 234.546587 
L 374.688905 233.610462 
L 375.435647 233.095949 
L 376.117456 232.887266 
L 376.766798 232.92167 
L 377.416139 233.183334 
L 378.114181 233.716144 
L 378.877158 234.591992 
L 379.737535 235.937778 
L 380.711548 237.900788 
L 381.815428 240.654906 
L 383.081644 244.442596 
L 384.57513 249.651589 
L 386.425753 256.965187 
L 389.34779 269.563084 
L 392.675666 283.644992 
L 394.526289 290.522721 
L 396.019775 295.25502 
L 397.285991 298.563833 
L 398.373638 300.824639 
L 398.487273 301.027959 
L 398.487273 301.027959 
" style="fill:none;stroke:#008000;stroke-linecap:square;stroke-width:1.5;"/>
   </g>
   <g id="patch_13">
    <path d="M 57.6 307.584 
L 57.6 229.315765 
" style="fill:none;stroke:#cccccc;stroke-linecap:square;stroke-linejoin:miter;stroke-width:0.8;"/>
   </g>
   <g id="patch_14">
    <path d="M 414.72 307.584 
L 414.72 229.315765 
" style="fill:none;stroke:#cccccc;stroke-linecap:square;stroke-linejoin:miter;stroke-width:0.8;"/>
   </g>
   <g id="patch_15">
    <path d="M 57.6 307.584 
L 414.72 307.584 
" style="fill:none;stroke:#cccccc;stroke-linecap:square;stroke-linejoin:miter;stroke-width:0.8;"/>
   </g>
   <g id="patch_16">
    <path d="M 57.6 229.315765 
L 414.72 229.315765 
" style="fill:none;stroke:#cccccc;stroke-linecap:square;stroke-linejoin:miter;stroke-width:0.8;"/>
   </g>
  </g>
 </g>
 <defs>
  <clipPath id="p4f8b77034a">
   <rect height="78.268235" width="357.12" x="57.6" y="41.472"/>
  </clipPath>
  <clipPath id="p111d88d1ab">
   <rect height="78.268235" width="357.12" x="57.6" y="135.393882"/>
  </clipPath>
  <clipPath id="p51e9786bf0">
   <rect height="78.268235" width="357.12" x="57.6" y="229.315765"/>
  </clipPath>
 </defs>
</svg>
