<?xml version="1.0" encoding="UTF-8" standalone="no"?>
<!-- Created with Inkscape (http://www.inkscape.org/) -->

<svg
   width="100.39055mm"
   height="71.147133mm"
   viewBox="0 0 100.39055 71.147133"
   version="1.1"
   id="svg1"
   xmlns="http://www.w3.org/2000/svg"
   xmlns:svg="http://www.w3.org/2000/svg">
  <defs
     id="defs1" />
  <g
     id="layer1"
     transform="translate(-46.188289,-29.720354)">
    <ellipse
       style="fill:#c7c7c7;fill-opacity:0;stroke:#ffac00;stroke-width:2.465;stroke-dasharray:none;stroke-opacity:1"
       id="path1"
       cx="105.93983"
       cy="52.877792"
       rx="21.556452"
       ry="21.924938" />
    <path
       style="fill:#c7c7c7;fill-opacity:0;stroke:#ff0400;stroke-width:1.465;stroke-dasharray:none;stroke-opacity:1"
       d="m 23.153226,59.510545 c -1.658189,-7.062655 -2.272333,-14.309552 1.903935,-18.608573 4.176267,-4.299021 13.142589,-5.65011 18.301412,-1.043926 5.158823,4.606185 6.509912,15.169249 3.684781,22.907511 -2.825132,7.738262 -9.826233,12.651314 -14.677997,11.668617 -4.851764,-0.982697 -7.553943,-7.860973 -9.212131,-14.923629 z"
       id="path2"
       transform="translate(28.004963,-4.7903226)" />
    <path
       style="fill:#c7c7c7;fill-opacity:0;stroke:#ff0400;stroke-width:1.465;stroke-dasharray:none;stroke-opacity:1"
       d="m 94.700991,67.064516 c 1.965262,-0.982632 3.93052,-1.965262 5.035982,-1.535342 1.105457,0.429919 1.351117,2.272315 1.166867,6.14148 -0.18425,3.869165 -0.79838,9.76483 -3.254999,15.353592 -2.456619,5.588762 -6.755542,10.870296 -10.747514,12.528464 -3.991973,1.65817 -7.676762,-0.307054 -9.027869,-4.544711 -1.351107,-4.237658 -0.368496,-10.747453 1.535378,-14.92365 1.903874,-4.176198 4.72888,-6.018593 7.553942,-7.861024"
       id="path3" />
    <path
       style="fill:#c7c7c7;fill-opacity:0;stroke:#ff0400;stroke-width:1.465;stroke-dasharray:none;stroke-opacity:1"
       d="m 124.54839,70.749379 c 2.70223,0.614143 5.40446,1.228286 6.75558,0.491293 1.35112,-0.736993 1.35112,-2.82504 -0.6756,-5.035982 -2.02672,-2.210943 -6.07998,-4.544637 -7.92241,-6.755578 -1.84243,-2.21094 -1.47395,-4.29899 -0.92121,-5.404449 0.55273,-1.10546 1.28969,-1.228287 2.02666,-1.351115"
       id="path4" />
    <path
       style="fill:#c7c7c7;fill-opacity:0;stroke:#ff0400;stroke-width:1.465;stroke-dasharray:none;stroke-opacity:1"
       d="m 116.81017,65.59057 c -1.47394,0.368485 -2.94789,0.736973 -3.00929,3.009346 -0.0614,2.272374 1.28969,6.44847 4.05338,9.334962 2.76369,2.886493 6.93978,4.483234 11.66874,4.790296 4.72897,0.307062 10.0105,-0.675549 12.95839,-3.070747 2.9479,-2.395198 3.56203,-6.202814 3.31637,-9.703468 -0.24567,-3.500654 -1.35111,-6.694136 -3.19357,-8.905068 -1.84246,-2.210932 -4.42181,-3.439194 -6.57133,-4.483247 -2.14952,-1.044053 -3.86909,-1.903838 -5.58869,-2.763638"
       id="path5" />
    <path
       style="fill:#c7c7c7;fill-opacity:0;stroke:#ff0400;stroke-width:1.465;stroke-dasharray:none;stroke-opacity:1"
       d="m 46.797766,50.114144 2.94789,-4.421836 3.316377,4.053348"
       id="path6" />
    <path
       style="fill:#c7c7c7;fill-opacity:0;stroke:#ff0400;stroke-width:1.465;stroke-dasharray:none;stroke-opacity:1"
       d="m 74.065756,80.330023 6.264267,-2.579404 1.473946,5.527296 v 0"
       id="path7" />
    <path
       style="fill:#c7c7c7;fill-opacity:0;stroke:#ff0400;stroke-width:1.465;stroke-dasharray:none;stroke-opacity:1"
       d="m 116.44169,82.540942 -0.36849,-7.00124 5.89578,0.368485"
       id="path8" />
  </g>
</svg>
