<?xml version="1.0" encoding="UTF-8" standalone="no"?>
<!-- Created with Inkscape (http://www.inkscape.org/) -->

<svg
   width="173.19084mm"
   height="139.66182mm"
   viewBox="0 0 173.19084 139.66182"
   version="1.1"
   id="svg1"
   xmlns="http://www.w3.org/2000/svg"
   xmlns:svg="http://www.w3.org/2000/svg">
  <defs
     id="defs1">
    <rect
       x="77.99144"
       y="213.08376"
       width="75.206032"
       height="68.242516"
       id="rect18" />
    <rect
       x="77.99144"
       y="213.08376"
       width="75.206032"
       height="68.242516"
       id="rect18-0" />
    <rect
       x="77.99144"
       y="213.08376"
       width="75.206032"
       height="68.242516"
       id="rect18-9" />
  </defs>
  <g
     id="layer1"
     transform="translate(-5.157676,-8.1043538)">
    <path
       style="fill:none;stroke:#e81111;stroke-width:1.065;stroke-dasharray:none"
       d="m 123.81141,21.740694 c 0,12.282878 0,24.565757 1.35114,31.812678 1.35115,7.246921 4.05333,9.457796 7.12408,8.475122 3.07076,-0.982674 6.5099,-5.158771 6.50986,-8.168092 -3e-5,-3.00932 -3.43917,-4.851716 -5.95718,-5.281609 -2.518,-0.429893 -4.11475,0.552722 -5.71152,1.535351"
       id="path1"
       transform="translate(-64.116625,-10.317618)" />
    <path
       style="fill:none;stroke:#e81111;stroke-width:1.065;stroke-dasharray:none"
       d="m 120.12655,54.904465 c -1.35112,2.456578 -2.70224,4.913156 -2.2109,7.922494 0.49134,3.009339 2.82504,6.571302 3.86909,11.668764 1.04404,5.097462 0.79839,11.730082 0.55273,18.362837"
       id="path2"
       transform="translate(-64.116625,-10.317618)" />
    <path
       style="fill:none;stroke:#e81111;stroke-width:1.065;stroke-dasharray:none"
       d="m 75.171214,20.635235 c 0,12.282879 0,24.565758 -0.06142,36.418849 -0.06142,11.853091 -0.184242,23.275939 -0.30707,34.699017"
       id="path3"
       transform="translate(-64.116625,-10.317618)" />
    <g
       id="path4"
       style="fill:#c7c7c7;fill-opacity:1;stroke:#c7c7c7;stroke-opacity:1">
      <path
         style="color:#000000;fill:#c7c7c7;fill-opacity:1;stroke:#c7c7c7;stroke-opacity:1;-inkscape-stroke:none"
         d="M 25.425781,44.492187 V 46.15625 H 46.060547 V 44.492187 Z"
         id="path21" />
      <g
         id="g19"
         style="fill:#c7c7c7;fill-opacity:1;stroke:#c7c7c7;stroke-opacity:1">
        <path
           style="color:#000000;fill:#c7c7c7;fill-opacity:1;stroke:#c7c7c7;stroke-opacity:1;-inkscape-stroke:none"
           d="m 42.070312,39.740234 -1.177734,1.177735 4.40625,4.40625 -4.40625,4.40625 1.177734,1.177734 5.583985,-5.583984 z"
           id="path20" />
        <path
           style="color:#000000;fill:#c7c7c7;fill-opacity:1;stroke:#c7c7c7;stroke-opacity:1;-inkscape-stroke:none"
           d="m 29.416016,39.740234 -5.583985,5.583985 5.583985,5.583984 1.177734,-1.177734 -4.40625,-4.40625 4.40625,-4.40625 z"
           id="path19" />
      </g>
    </g>
    <path
       style="fill:none;stroke:#e81111;stroke-width:1.065;stroke-dasharray:none"
       d="m 75.171214,20.635235 c 0,12.282879 0,24.565758 -0.06142,36.418849 -0.06142,11.853091 -0.184242,23.275939 -0.30707,34.699017"
       id="path3-7"
       transform="translate(24.470444,-8.9027681)" />
    <path
       style="fill:none;stroke:#001bff;stroke-width:1.065;stroke-dasharray:none;stroke-opacity:1"
       d="m 75.171214,20.635235 c 0,12.282879 0,24.565758 -0.06142,36.418849 -0.06142,11.853091 -0.184242,23.275939 -0.30707,34.699017"
       id="path3-7-7"
       transform="translate(35.234894,-9.0498051)" />
    <g
       id="path4-2"
       style="fill:#c7c7c7;fill-opacity:1;stroke:#c7c7c7;stroke-opacity:1">
      <path
         style="color:#000000;fill:#c7c7c7;fill-opacity:1;stroke:#c7c7c7;stroke-opacity:1;-inkscape-stroke:none"
         d="m 118.80273,45.169922 v 1.664062 h 20.63477 v -1.664062 z"
         id="path24" />
      <g
         id="g22"
         style="fill:#c7c7c7;fill-opacity:1;stroke:#c7c7c7;stroke-opacity:1">
        <path
           style="color:#000000;fill:#c7c7c7;fill-opacity:1;stroke:#c7c7c7;stroke-opacity:1;-inkscape-stroke:none"
           d="m 135.44727,40.417969 -1.17579,1.177734 4.40625,4.40625 -4.40625,4.40625 1.17579,1.177734 5.58398,-5.583984 z"
           id="path23" />
        <path
           style="color:#000000;fill:#c7c7c7;fill-opacity:1;stroke:#c7c7c7;stroke-opacity:1;-inkscape-stroke:none"
           d="m 122.79297,40.417969 -5.58399,5.583984 5.58399,5.583984 1.17773,-1.177734 -4.40625,-4.40625 4.40625,-4.40625 z"
           id="path22" />
      </g>
    </g>
    <g
       id="path4-2-6"
       style="fill:#c7c7c7;fill-opacity:1;stroke:#c7c7c7;stroke-opacity:1">
      <path
         style="color:#000000;fill:#c7c7c7;fill-opacity:1;stroke:#c7c7c7;stroke-opacity:1;-inkscape-stroke:none"
         d="m 78.440834,122.07701 h 20.63524"
         id="path27" />
      <path
         style="color:#000000;fill:#c7c7c7;fill-opacity:1;stroke:#c7c7c7;stroke-opacity:1;-inkscape-stroke:none"
         d="m 78.441406,121.24414 v 1.66602 h 20.634766 v -1.66602 z"
         id="path28" />
      <g
         id="g25"
         style="fill:#c7c7c7;fill-opacity:1;stroke:#c7c7c7;stroke-opacity:1">
        <path
           style="color:#000000;fill:#c7c7c7;fill-opacity:1;stroke:#c7c7c7;stroke-opacity:1;-inkscape-stroke:none"
           d="m 95.085937,116.49414 -1.177734,1.17578 4.40625,4.40625 -4.40625,4.40625 1.177734,1.17774 5.583983,-5.58399 z"
           id="path26" />
        <path
           style="color:#000000;fill:#c7c7c7;fill-opacity:1;stroke:#c7c7c7;stroke-opacity:1;-inkscape-stroke:none"
           d="m 82.431641,116.49414 -5.583985,5.58203 5.583985,5.58399 1.175781,-1.17774 -4.40625,-4.40625 4.40625,-4.40625 z"
           id="path25" />
      </g>
    </g>
    <path
       style="fill:none;stroke:#e81111;stroke-width:1.065;stroke-dasharray:none"
       d="m 75.171214,20.635235 c 0,12.282879 0,24.565758 -0.06142,36.418849 -0.06142,11.853091 -0.184242,23.275939 -0.30707,34.699017"
       id="path3-7-2"
       transform="translate(86.060988,-8.1896261)" />
    <path
       style="fill:none;stroke:#0011ff;stroke-width:1.065;stroke-dasharray:none;stroke-opacity:1"
       d="m 145.92059,109.80893 c 0,5.65013 0,11.30025 1.53539,15.10796 1.53539,3.80771 4.60605,5.77293 7.67677,7.7382"
       id="path7"
       transform="translate(1.842432,-97.280397)" />
    <path
       style="fill:none;stroke:#0011ff;stroke-width:1.065;stroke-dasharray:none;stroke-opacity:1"
       d="m 162.13399,134.49752 c 3.8077,2.08809 7.61539,4.17618 9.78152,7.12181 2.16613,2.94563 2.62419,6.26652 1.76436,9.09161 -0.85982,2.82508 -3.07069,4.91313 -4.91314,6.01859 -1.84244,1.10546 -3.31636,1.22828 -4.79031,1.35111"
       id="path8"
       transform="translate(1.842432,-97.280397)" />
    <path
       style="fill:none;stroke:#0011ff;stroke-width:1.065;stroke-dasharray:none;stroke-opacity:1"
       d="m 154.76427,158.44913 c -2.33375,1.7196 -4.6675,3.4392 -6.08003,5.95723 -1.41254,2.51802 -1.90385,5.83433 -2.1495,8.47517 -0.24566,2.64084 -0.24566,4.60606 -0.24566,6.57132"
       id="path9"
       transform="translate(1.842432,-97.280397)" />
    <path
       style="fill:none;stroke:#ff001e;stroke-width:1.065;stroke-dasharray:none;stroke-opacity:1"
       d="M 7.7382132,115.70471 H 71.486352"
       id="path10" />
    <path
       style="fill:none;stroke:#ff001e;stroke-width:1.065;stroke-dasharray:none;stroke-opacity:1"
       d="M 98.447169,131.17077 H 162.19531"
       id="path10-5" />
    <path
       style="fill:none;stroke:#002cff;stroke-width:1.065;stroke-dasharray:none;stroke-opacity:1"
       d="M 64.116624,102.4392 53.799006,113.49379"
       id="path11" />
    <path
       style="fill:none;stroke:#002cff;stroke-width:1.065;stroke-dasharray:none;stroke-opacity:1"
       d="m 122.6586,133.76838 -10.31762,11.05459"
       id="path11-9" />
    <path
       style="fill:none;stroke:#002bff;stroke-width:1.065;stroke-dasharray:none;stroke-opacity:1"
       d="M 47.166252,118.6526 19.161289,147.39454"
       id="path12" />
    <path
       style="fill:none;stroke:#002bff;stroke-width:1.065;stroke-dasharray:none;stroke-opacity:1"
       d="m 155.39547,100.57654 -28.00496,28.74194"
       id="path12-3" />
    <path
       style="fill:none;stroke:#00ff1a;stroke-width:1.065;stroke-dasharray:none;stroke-opacity:1"
       d="m 22.477668,105.3871 4.053348,8.84367"
       id="path13" />
    <path
       style="fill:none;stroke:#00ff18;stroke-width:1.065;stroke-dasharray:none;stroke-opacity:1"
       d="m 29.110421,117.54714 4.05335,8.84368"
       id="path14" />
    <path
       style="fill:none;stroke:#00ff18;stroke-width:1.065;stroke-dasharray:none;stroke-opacity:1"
       d="m 139.53116,120.03265 4.05335,8.84368"
       id="path14-3" />
    <path
       style="fill:none;stroke:#00ff16;stroke-width:1.065;stroke-dasharray:none;stroke-opacity:1"
       d="m 36.848634,132.65508 8.475186,13.634"
       id="path15" />
    <path
       style="fill:none;stroke:#00ff16;stroke-width:1.065;stroke-dasharray:none;stroke-opacity:1"
       d="m 127.37789,102.74636 8.47519,13.634"
       id="path15-2" />
    <path
       style="fill:none;stroke:#00ff16;stroke-width:1.065;stroke-dasharray:none;stroke-opacity:1"
       d="m 146.8509,133.65209 8.47518,13.634"
       id="path15-4" />
    <path
       style="fill:none;stroke:#c7c7c7;stroke-width:1.065;stroke-dasharray:none;stroke-opacity:1"
       d="M 5.158809,92.490075 178.34739,92.85856"
       id="path17" />
    <path
       style="fill:none;stroke:#c7c7c7;stroke-width:1.065;stroke-dasharray:none;stroke-opacity:1"
       d="M 83.646401,8.1066996 83.277915,91.753101"
       id="path18" />
    <text
       xml:space="preserve"
       transform="matrix(0.26458333,0,0,0.26458333,10.684971,-4.0556958)"
       id="text18"
       style="font-size:53.3333px;white-space:pre;shape-inside:url(#rect18);display:inline;fill:#c7c7c7;fill-opacity:1;stroke:#c7c7c7;stroke-width:4.0252;stroke-dasharray:none;stroke-opacity:1"><tspan
         x="77.992188"
         y="261.74157"
         id="tspan2">1</tspan></text>
    <text
       xml:space="preserve"
       transform="matrix(0.26458333,0,0,0.26458333,103.67518,-4.7179469)"
       id="text18-2"
       style="font-size:53.3333px;white-space:pre;shape-inside:url(#rect18-0);display:inline;fill:#c7c7c7;fill-opacity:1;stroke:#c7c7c7;stroke-width:4.0252;stroke-dasharray:none;stroke-opacity:1"><tspan
         x="77.992188"
         y="261.74157"
         id="tspan3">2</tspan></text>
    <text
       xml:space="preserve"
       transform="matrix(0.26458333,0,0,0.26458333,63.59989,42.509612)"
       id="text18-3"
       style="font-size:53.3333px;white-space:pre;shape-inside:url(#rect18-9);display:inline;fill:#c7c7c7;fill-opacity:1;stroke:#c7c7c7;stroke-width:4.0252;stroke-dasharray:none;stroke-opacity:1"><tspan
         x="77.992188"
         y="261.74157"
         id="tspan4">3</tspan></text>
  </g>
</svg>
